<mxfile host="drawio-plugin" modified="2024-02-12T09:26:23.113Z" agent="5.0 (X11; Linux x86_64) AppleWebKit/537.36 (KHTML, like Gecko) Chrome/111.0.0.0 Safari/537.36" etag="AXZhXCz6JSEI1JTw5DPK" version="20.5.3" type="embed"><diagram id="jZBJEiPudzJ2vF5YFzmK" name="Page-1"><mxGraphModel dx="1750" dy="787" grid="1" gridSize="10" guides="1" tooltips="1" connect="1" arrows="1" fold="1" page="1" pageScale="1" pageWidth="850" pageHeight="1100" math="0" shadow="0"><root><mxCell id="0"/><mxCell id="1" parent="0"/><mxCell id="11" style="edgeStyle=orthogonalEdgeStyle;rounded=0;orthogonalLoop=1;jettySize=auto;html=1;entryX=1;entryY=0.5;entryDx=0;entryDy=0;entryPerimeter=0;fontColor=#FFFFFF;" parent="1" source="2" target="10" edge="1"><mxGeometry relative="1" as="geometry"><Array as="points"><mxPoint x="180" y="250"/><mxPoint x="180" y="40"/></Array></mxGeometry></mxCell><mxCell id="12" style="edgeStyle=orthogonalEdgeStyle;rounded=0;orthogonalLoop=1;jettySize=auto;html=1;fontColor=#FFFFFF;" parent="1" source="2" target="4" edge="1"><mxGeometry relative="1" as="geometry"><Array as="points"><mxPoint x="180" y="250"/><mxPoint x="180" y="181"/></Array></mxGeometry></mxCell><mxCell id="13" style="edgeStyle=orthogonalEdgeStyle;rounded=0;orthogonalLoop=1;jettySize=auto;html=1;fontColor=#FFFFFF;" parent="1" source="2" target="6" edge="1"><mxGeometry relative="1" as="geometry"><Array as="points"><mxPoint x="180" y="250"/><mxPoint x="180" y="290"/></Array></mxGeometry></mxCell><mxCell id="14" style="edgeStyle=orthogonalEdgeStyle;rounded=0;orthogonalLoop=1;jettySize=auto;html=1;entryX=1;entryY=0.5;entryDx=0;entryDy=0;fontColor=#FFFFFF;" parent="1" source="2" target="7" edge="1"><mxGeometry relative="1" as="geometry"><Array as="points"><mxPoint x="180" y="250"/><mxPoint x="180" y="390"/></Array></mxGeometry></mxCell><mxCell id="15" style="edgeStyle=orthogonalEdgeStyle;rounded=0;orthogonalLoop=1;jettySize=auto;html=1;entryX=1;entryY=0.5;entryDx=0;entryDy=0;entryPerimeter=0;fontColor=#FFFFFF;" parent="1" source="2" target="9" edge="1"><mxGeometry relative="1" as="geometry"><Array as="points"><mxPoint x="180" y="250"/><mxPoint x="180" y="511"/></Array></mxGeometry></mxCell><mxCell id="16" value="fetch data" style="edgeLabel;html=1;align=center;verticalAlign=middle;resizable=0;points=[];fontColor=#FFFFFF;fontStyle=1" parent="15" vertex="1" connectable="0"><mxGeometry x="-0.6106" y="2" relative="1" as="geometry"><mxPoint x="18" y="8" as="offset"/></mxGeometry></mxCell><mxCell id="17" value="&lt;b&gt;create embeddings&lt;br&gt;and save data&lt;/b&gt;" style="edgeStyle=orthogonalEdgeStyle;rounded=0;orthogonalLoop=1;jettySize=auto;html=1;entryX=0;entryY=0.5;entryDx=0;entryDy=0;entryPerimeter=0;fontColor=#FFFFFF;" parent="1" source="2" target="3" edge="1"><mxGeometry relative="1" as="geometry"/></mxCell><mxCell id="19" style="edgeStyle=orthogonalEdgeStyle;rounded=0;orthogonalLoop=1;jettySize=auto;html=1;entryX=1;entryY=0.5;entryDx=0;entryDy=0;fontColor=#FFFFFF;" parent="1" source="2" target="18" edge="1"><mxGeometry relative="1" as="geometry"><Array as="points"><mxPoint x="180" y="250"/><mxPoint x="180" y="630"/></Array></mxGeometry></mxCell><mxCell id="2" value="airbyte" style="rounded=0;whiteSpace=wrap;html=1;" parent="1" vertex="1"><mxGeometry x="300" y="220" width="120" height="60" as="geometry"/></mxCell><mxCell id="3" value="weaviate" style="shape=cylinder3;whiteSpace=wrap;html=1;boundedLbl=1;backgroundOutline=1;size=15;" parent="1" vertex="1"><mxGeometry x="580" y="210" width="60" height="80" as="geometry"/></mxCell><mxCell id="4" value="" style="dashed=0;outlineConnect=0;html=1;align=center;labelPosition=center;verticalLabelPosition=bottom;verticalAlign=top;shape=mxgraph.webicons.adobe_pdf;fillColor=#F40C0C;gradientColor=#610603" parent="1" vertex="1"><mxGeometry x="10" y="130" width="102.4" height="102.4" as="geometry"/></mxCell><mxCell id="6" value="Microsoft Word&lt;br&gt;Documents" style="rounded=0;whiteSpace=wrap;html=1;" parent="1" vertex="1"><mxGeometry x="10" y="260" width="120" height="60" as="geometry"/></mxCell><mxCell id="7" value="Excel&lt;br&gt;Files" style="rounded=0;whiteSpace=wrap;html=1;" parent="1" vertex="1"><mxGeometry x="10" y="360" width="120" height="60" as="geometry"/></mxCell><mxCell id="9" value="&lt;b&gt;&lt;font color=&quot;#ffffff&quot;&gt;S3 Bucket&lt;/font&gt;&lt;/b&gt;" style="sketch=0;points=[[0,0,0],[0.25,0,0],[0.5,0,0],[0.75,0,0],[1,0,0],[0,1,0],[0.25,1,0],[0.5,1,0],[0.75,1,0],[1,1,0],[0,0.25,0],[0,0.5,0],[0,0.75,0],[1,0.25,0],[1,0.5,0],[1,0.75,0]];outlineConnect=0;fontColor=#232F3E;gradientColor=#60A337;gradientDirection=north;fillColor=#277116;strokeColor=#ffffff;dashed=0;verticalLabelPosition=bottom;verticalAlign=top;align=center;html=1;fontSize=12;fontStyle=0;aspect=fixed;shape=mxgraph.aws4.resourceIcon;resIcon=mxgraph.aws4.s3;" parent="1" vertex="1"><mxGeometry x="31" y="472" width="78" height="78" as="geometry"/></mxCell><mxCell id="10" value="Database" style="shape=cylinder3;whiteSpace=wrap;html=1;boundedLbl=1;backgroundOutline=1;size=15;fontColor=#FFFFFF;" parent="1" vertex="1"><mxGeometry x="31" width="60" height="80" as="geometry"/></mxCell><mxCell id="18" value="...." style="rounded=0;whiteSpace=wrap;html=1;fontColor=#FFFFFF;" parent="1" vertex="1"><mxGeometry x="20" y="600" width="120" height="60" as="geometry"/></mxCell><mxCell id="27" value="proxy" style="edgeStyle=orthogonalEdgeStyle;rounded=0;orthogonalLoop=1;jettySize=auto;html=1;entryX=1;entryY=0.5;entryDx=0;entryDy=0;entryPerimeter=0;fontColor=#FFFFFF;" parent="1" source="20" target="26" edge="1"><mxGeometry relative="1" as="geometry"/></mxCell><mxCell id="20" value="ollama" style="rounded=0;whiteSpace=wrap;html=1;fontColor=#FFFFFF;" parent="1" vertex="1"><mxGeometry x="940" y="220" width="120" height="60" as="geometry"/></mxCell><mxCell id="23" style="edgeStyle=orthogonalEdgeStyle;rounded=0;orthogonalLoop=1;jettySize=auto;html=1;fontColor=#FFFFFF;" parent="1" source="21" target="22" edge="1"><mxGeometry relative="1" as="geometry"/></mxCell><mxCell id="21" value="User" style="shape=umlActor;verticalLabelPosition=bottom;verticalAlign=top;html=1;outlineConnect=0;fontColor=#FFFFFF;" parent="1" vertex="1"><mxGeometry x="1330" y="205" width="50" height="90" as="geometry"/></mxCell><mxCell id="24" style="edgeStyle=orthogonalEdgeStyle;rounded=0;orthogonalLoop=1;jettySize=auto;html=1;fontColor=#FFFFFF;" parent="1" source="22" target="20" edge="1"><mxGeometry relative="1" as="geometry"/></mxCell><mxCell id="22" value="Custom ollama&lt;br&gt;webui" style="rounded=0;whiteSpace=wrap;html=1;fontColor=#FFFFFF;" parent="1" vertex="1"><mxGeometry x="1140" y="220" width="120" height="60" as="geometry"/></mxCell><mxCell id="28" style="edgeStyle=orthogonalEdgeStyle;rounded=0;orthogonalLoop=1;jettySize=auto;html=1;entryX=1;entryY=0.5;entryDx=0;entryDy=0;entryPerimeter=0;fontColor=#FFFFFF;" parent="1" source="26" target="3" edge="1"><mxGeometry relative="1" as="geometry"/></mxCell><mxCell id="26" value="Middleware&lt;br&gt;with llamaindex + more" style="sketch=0;aspect=fixed;pointerEvents=1;shadow=0;dashed=0;html=1;strokeColor=none;labelPosition=center;verticalLabelPosition=bottom;verticalAlign=top;align=center;shape=mxgraph.azure.startup_task;fillColor=#0078D7;fontColor=#FFFFFF;" parent="1" vertex="1"><mxGeometry x="770" y="225" width="48" height="50" as="geometry"/></mxCell></root></mxGraphModel></diagram></mxfile>